  0
SECTION
  2
HEADER
  9
$ACADVER
  1
AC1014
  9
$HANDSEED
  5
FFFF
  9
$MEASUREMENT
 70
     1
  0
ENDSEC
  0
SECTION
  2
TABLES
  0
TABLE
  2
VPORT
  5
8
330
0
100
AcDbSymbolTable
 70
     4
  0
VPORT
  5
2E
330
8
100
AcDbSymbolTableRecord
100
AcDbViewportTableRecord
  2
*ACTIVE
 70
     0
 10
0.0
 20
0.0
 11
1.0
 21
1.0
 12
210.0
 22
148.5
 13
0.0
 23
0.0
 14
10.0
 24
10.0
 15
10.0
 25
10.0
 16
0.0
 26
0.0
 36
1.0
 17
0.0
 27
0.0
 37
0.0
 40
341.0
 41
1.24
 42
50.0
 43
0.0
 44
0.0
 50
0.0
 51
0.0
 71
     0
 72
   100
 73
     1
 74
     3
 75
     0
 76
     0
 77
     0
 78
     0
  0
ENDTAB
  0
TABLE
  2
LTYPE
  5
5
330
0
100
AcDbSymbolTable
 70
     1
  0
LTYPE
  5
14
330
5
100
AcDbSymbolTableRecord
100
AcDbLinetypeTableRecord
  2
BYBLOCK
 70
     0
  3

 72
    65
 73
     0
 40
0.0
  0
LTYPE
  5
15
330
5
100
AcDbSymbolTableRecord
100
AcDbLinetypeTableRecord
  2
BYLAYER
 70
     0
  3

 72
    65
 73
     0
 40
0.0
  0
LTYPE
  5
16
330
5
100
AcDbSymbolTableRecord
100
AcDbLinetypeTableRecord
  2
CONTINUOUS
 70
     0
  3
Solid line
 72
    65
 73
     0
 40
0.0
  0
ENDTAB
  0
TABLE
  2
LAYER
  5
2
100
AcDbSymbolTable
 70
5
  0
LAYER
  5
50
100
AcDbSymbolTableRecord
100
AcDbLayerTableRecord
  2
0
 70
0
  6
CONTINUOUS
  0
LAYER
  5
51
100
AcDbSymbolTableRecord
100
AcDbLayerTableRecord
  2
mfos_vco_VI_panel_2
 70
0
  6
CONTINUOUS
  0
LAYER
  5
52
100
AcDbSymbolTableRecord
100
AcDbLayerTableRecord
  2
holes
 70
0
  6
CONTINUOUS
  0
LAYER
  5
53
100
AcDbSymbolTableRecord
100
AcDbLayerTableRecord
  2
text
 70
0
  6
CONTINUOUS
  0
LAYER
  5
54
100
AcDbSymbolTableRecord
100
AcDbLayerTableRecord
  2
overlay#1
 70
0
  6
CONTINUOUS
  0
ENDTAB
  0
TABLE
  2
STYLE
  5
3
330
0
100
AcDbSymbolTable
 70
     1
  0
STYLE
  5
11
330
3
100
AcDbSymbolTableRecord
100
AcDbTextStyleTableRecord
  2
STANDARD
 70
     0
 40
0.0
 41
1.0
 50
0.0
 71
     0
 42
2.5
  3
txt
  4

  0
ENDTAB
  0
TABLE
  2
VIEW
  5
6
330
0
100
AcDbSymbolTable
 70
     0
  0
ENDTAB
  0
TABLE
  2
UCS
  5
7
330
0
100
AcDbSymbolTable
 70
     0
  0
ENDTAB
  0
TABLE
  2
APPID
  5
9
330
0
100
AcDbSymbolTable
 70
     2
  0
APPID
  5
12
330
9
100
AcDbSymbolTableRecord
100
AcDbRegAppTableRecord
  2
ACAD
 70
     0
  0
ENDTAB
  0
TABLE
  2
DIMSTYLE
  5
A
330
0
100
AcDbSymbolTable
 70
     1
  0
DIMSTYLE
105
27
330
A
100
AcDbSymbolTableRecord
100
AcDbDimStyleTableRecord
  2
ISO-25
 70
     0
  3

  4

  5

  6

  7

 40
1.0
 41
2.5
 42
0.625
 43
3.75
 44
1.25
 45
0.0
 46
0.0
 47
0.0
 48
0.0
140
2.5
141
2.5
142
0.0
143
0.03937007874016
144
1.0
145
0.0
146
1.0
147
0.625
 71
     0
 72
     0
 73
     0
 74
     0
 75
     0
 76
     0
 77
     1
 78
     8
170
     0
171
     3
172
     1
173
     0
174
     0
175
     0
176
     0
177
     0
178
     0
270
     2
271
     2
272
     2
273
     2
274
     3
340
11
275
     0
280
     0
281
     0
282
     0
283
     0
284
     8
285
     0
286
     0
287
     3
288
     0
  0
ENDTAB
  0
TABLE
  2
BLOCK_RECORD
  5
1
330
0
100
AcDbSymbolTable
 70
     1
  0
BLOCK_RECORD
  5
1F
330
1
100
AcDbSymbolTableRecord
100
AcDbBlockTableRecord
  2
*MODEL_SPACE
  0
BLOCK_RECORD
  5
1B
330
1
100
AcDbSymbolTableRecord
100
AcDbBlockTableRecord
  2
*PAPER_SPACE
  0
ENDTAB
  0
ENDSEC
  0
SECTION
  2
BLOCKS
  0
BLOCK
  5
20
330
1F
100
AcDbEntity
  8
0
100
AcDbBlockBegin
  2
*MODEL_SPACE
 70
     0
 10
0.0
 20
0.0
 30
0.0
  3
*MODEL_SPACE
  1

  0
ENDBLK
  5
21
330
1F
100
AcDbEntity
  8
0
100
AcDbBlockEnd
  0
BLOCK
  5
1C
330
1B
100
AcDbEntity
 67
     1
  8
0
100
AcDbBlockBegin
  2
*PAPER_SPACE
  1

  0
ENDBLK
  5
1D
330
1B
100
AcDbEntity
 67
     1
  8
0
100
AcDbBlockEnd
  0
ENDSEC
  0
SECTION
  2
ENTITIES
  0
LINE
  5
100
100
AcDbEntity
  8
text
 62
1
100
AcDbLine
 10
0.173205
 20
10.839592
 30
0.0
 11
8.173558
 21
10.839592
 31
0.0
  0
LINE
  5
101
100
AcDbEntity
  8
text
 62
1
100
AcDbLine
 10
8.173558
 20
10.839592
 30
0.0
 11
8.173558
 21
0.320193
 31
0.0
  0
LINE
  5
102
100
AcDbEntity
  8
text
 62
1
100
AcDbLine
 10
8.173558
 20
0.320193
 30
0.0
 11
0.173205
 21
0.320193
 31
0.0
  0
LINE
  5
103
100
AcDbEntity
  8
text
 62
1
100
AcDbLine
 10
0.173205
 20
0.320193
 30
0.0
 11
0.173205
 21
10.839592
 31
0.0
  0
LINE
  5
104
100
AcDbEntity
  8
text
 62
1
100
AcDbLine
 10
1.870178
 20
5.667403
 30
0.0
 11
0.704976
 21
5.667403
 31
0.0
  0
LINE
  5
105
100
AcDbEntity
  8
text
 62
1
100
AcDbLine
 10
0.704976
 20
5.667403
 30
0.0
 11
0.704976
 21
10.700958
 31
0.0
  0
LINE
  5
106
100
AcDbEntity
  8
text
 62
1
100
AcDbLine
 10
0.704976
 20
10.700958
 30
0.0
 11
3.931331
 21
10.700958
 31
0.0
  0
LINE
  5
107
100
AcDbEntity
  8
text
 62
1
100
AcDbLine
 10
3.931331
 20
10.700958
 30
0.0
 11
3.931331
 21
5.667403
 31
0.0
  0
LINE
  5
108
100
AcDbEntity
  8
text
 62
1
100
AcDbLine
 10
3.931331
 20
5.667403
 30
0.0
 11
0.704976
 21
5.667403
 31
0.0
  0
LINE
  5
109
100
AcDbEntity
  8
text
 62
1
100
AcDbLine
 10
3.597732
 20
10.580276
 30
0.0
 11
3.597732
 21
10.580276
 31
0.0
  0
SPLINE
  5
10a
100
AcDbEntity
  8
text
 62
1
100
AcDbSpline
 70
0
 71
3
 72
25
 73
21
 74
19
 40
0.000000
 40
0.000000
 40
0.000000
 40
0.000000
 40
0.002478
 40
0.004968
 40
0.007536
 40
0.010168
 40
0.012831
 40
0.015548
 40
0.020950
 40
0.025989
 40
0.030964
 40
0.035940
 40
0.040979
 40
0.046381
 40
0.049098
 40
0.051761
 40
0.054393
 40
0.056961
 40
0.059451
 40
0.061929
 40
0.061929
 40
0.061929
 40
0.061929
 10
3.597732
 20
10.580276
 30
0.0
 10
3.597662
 20
10.579447
 30
0.0
 10
3.597522
 20
10.577785
 30
0.0
 10
3.596419
 20
10.575473
 30
0.0
 10
3.594751
 20
10.573495
 30
0.0
 10
3.592570
 20
10.571987
 30
0.0
 10
3.590044
 20
10.571042
 30
0.0
 10
3.586447
 20
10.570610
 30
0.0
 10
3.581999
 20
10.571669
 30
0.0
 10
3.577984
 20
10.575222
 30
0.0
 10
3.576430
 20
10.580276
 30
0.0
 10
3.577984
 20
10.585330
 30
0.0
 10
3.581999
 20
10.588883
 30
0.0
 10
3.586447
 20
10.589941
 30
0.0
 10
3.590044
 20
10.589509
 30
0.0
 10
3.592570
 20
10.588565
 30
0.0
 10
3.594751
 20
10.587056
 30
0.0
 10
3.596419
 20
10.585079
 30
0.0
 10
3.597522
 20
10.582766
 30
0.0
 10
3.597662
 20
10.581104
 30
0.0
 10
3.597732
 20
10.580276
 30
0.0
 11
3.597732
 21
10.580276
 31
0.0
 11
3.597376
 21
10.577824
 31
0.0
 11
3.596344
 21
10.575557
 31
0.0
 11
3.594688
 21
10.573595
 31
0.0
 11
3.592529
 21
10.572090
 31
0.0
 11
3.590036
 21
10.571151
 31
0.0
 11
3.587339
 21
10.570827
 31
0.0
 11
3.582093
 21
10.572117
 31
0.0
 11
3.578365
 21
10.575507
 31
0.0
 11
3.576946
 21
10.580276
 31
0.0
 11
3.578365
 21
10.585045
 31
0.0
 11
3.582093
 21
10.588434
 31
0.0
 11
3.587339
 21
10.589724
 31
0.0
 11
3.590036
 21
10.589400
 31
0.0
 11
3.592529
 21
10.588462
 31
0.0
 11
3.594688
 21
10.586957
 31
0.0
 11
3.596344
 21
10.584994
 31
0.0
 11
3.597376
 21
10.582728
 31
0.0
 11
3.597732
 21
10.580276
 31
0.0
  0
LINE
  5
10b
100
AcDbEntity
  8
text
 62
1
100
AcDbLine
 10
1.018065
 20
5.804081
 30
0.0
 11
1.018065
 21
5.804081
 31
0.0
  0
SPLINE
  5
10c
100
AcDbEntity
  8
text
 62
1
100
AcDbSpline
 70
0
 71
3
 72
25
 73
21
 74
19
 40
0.000000
 40
0.000000
 40
0.000000
 40
0.000000
 40
0.001741
 40
0.003538
 40
0.005468
 40
0.007524
 40
0.009667
 40
0.011886
 40
0.014104
 40
0.016247
 40
0.018304
 40
0.020233
 40
0.022031
 40
0.023772
 40
0.027306
 40
0.031171
 40
0.035557
 40
0.039942
 40
0.043807
 40
0.047341
 40
0.047341
 40
0.047341
 40
0.047341
 10
1.018065
 20
5.804081
 30
0.0
 10
1.018006
 20
5.803499
 30
0.0
 10
1.017887
 20
5.802314
 30
0.0
 10
1.016966
 20
5.800688
 30
0.0
 10
1.015594
 20
5.799311
 30
0.0
 10
1.013812
 20
5.798267
 30
0.0
 10
1.011759
 20
5.797615
 30
0.0
 10
1.009561
 20
5.797392
 30
0.0
 10
1.007364
 20
5.797615
 30
0.0
 10
1.005309
 20
5.798267
 30
0.0
 10
1.003531
 20
5.799311
 30
0.0
 10
1.002147
 20
5.800688
 30
0.0
 10
1.001265
 20
5.802314
 30
0.0
 10
1.000844
 20
5.804680
 30
0.0
 10
1.001998
 20
5.807758
 30
0.0
 10
1.005316
 20
5.810143
 30
0.0
 10
1.009573
 20
5.810989
 30
0.0
 10
1.013762
 20
5.810144
 30
0.0
 10
1.017254
 20
5.807756
 30
0.0
 10
1.017803
 20
5.805269
 30
0.0
 10
1.018065
 20
5.804081
 30
0.0
 11
1.018065
 21
5.804081
 31
0.0
 11
1.017773
 21
5.802365
 31
0.0
 11
1.016929
 21
5.800779
 31
0.0
 11
1.015574
 21
5.799405
 31
0.0
 11
1.013808
 21
5.798351
 31
0.0
 11
1.011768
 21
5.797694
 31
0.0
 11
1.009561
 21
5.797467
 31
0.0
 11
1.007354
 21
5.797694
 31
0.0
 11
1.005315
 21
5.798351
 31
0.0
 11
1.003548
 21
5.799405
 31
0.0
 11
1.002194
 21
5.800779
 31
0.0
 11
1.001349
 21
5.802365
 31
0.0
 11
1.001057
 21
5.804081
 31
0.0
 11
1.002218
 21
5.807420
 31
0.0
 11
1.005269
 21
5.809792
 31
0.0
 11
1.009561
 21
5.810695
 31
0.0
 11
1.013853
 21
5.809792
 31
0.0
 11
1.016904
 21
5.807420
 31
0.0
 11
1.018065
 21
5.804081
 31
0.0
  0
LINE
  5
10d
100
AcDbEntity
  8
text
 62
1
100
AcDbLine
 10
1.038145
 20
9.291784
 30
0.0
 11
1.131075
 21
9.291784
 31
0.0
  0
LINE
  5
10e
100
AcDbEntity
  8
text
 62
1
100
AcDbLine
 10
1.084589
 20
9.245298
 30
0.0
 11
1.084589
 21
9.338284
 31
0.0
  0
SPLINE
  5
10f
100
AcDbEntity
  8
text
 62
1
100
AcDbSpline
 70
0
 71
3
 72
19
 73
15
 74
13
 40
0.000000
 40
0.000000
 40
0.000000
 40
0.000000
 40
0.062844
 40
0.120066
 40
0.182913
 40
0.245774
 40
0.302984
 40
0.365825
 40
0.428661
 40
0.485873
 40
0.548735
 40
0.611583
 40
0.668807
 40
0.731645
 40
0.731645
 40
0.731645
 40
0.731645
 10
0.968367
 20
9.291784
 30
0.0
 10
0.970855
 20
9.313138
 30
0.0
 10
0.975610
 20
9.353934
 30
0.0
 10
1.022736
 20
9.399710
 30
0.0
 10
1.084510
 20
9.412326
 30
0.0
 10
1.146770
 20
9.399718
 30
0.0
 10
1.192520
 20
9.353929
 30
0.0
 10
1.205131
 20
9.291786
 30
0.0
 10
1.192518
 20
9.229643
 30
0.0
 10
1.146771
 20
9.183855
 30
0.0
 10
1.084510
 20
9.171240
 30
0.0
 10
1.022735
 20
9.183862
 30
0.0
 10
0.975612
 20
9.229638
 30
0.0
 10
0.970856
 20
9.270433
 30
0.0
 10
0.968367
 20
9.291784
 30
0.0
 11
0.968367
 21
9.291784
 31
0.0
 11
0.983005
 21
9.352900
 31
0.0
 11
1.023470
 21
9.393358
 31
0.0
 11
1.084589
 21
9.407992
 31
0.0
 11
1.145723
 21
9.393358
 31
0.0
 11
1.186172
 21
9.352900
 31
0.0
 11
1.200797
 21
9.291784
 31
0.0
 11
1.186172
 21
9.230675
 31
0.0
 11
1.145723
 21
9.190213
 31
0.0
 11
1.084589
 21
9.175576
 31
0.0
 11
1.023470
 21
9.190213
 31
0.0
 11
0.983005
 21
9.230675
 31
0.0
 11
0.968367
 21
9.291784
 31
0.0
  0
LINE
  5
110
100
AcDbEntity
  8
text
 62
1
100
AcDbLine
 10
1.351312
 20
6.948824
 30
0.0
 11
1.444243
 21
6.948824
 31
0.0
  0
LINE
  5
111
100
AcDbEntity
  8
text
 62
1
100
AcDbLine
 10
1.397756
 20
6.902338
 30
0.0
 11
1.397756
 21
6.995324
 31
0.0
  0
SPLINE
  5
112
100
AcDbEntity
  8
text
 62
1
100
AcDbSpline
 70
0
 71
3
 72
19
 73
15
 74
13
 40
0.000000
 40
0.000000
 40
0.000000
 40
0.000000
 40
0.062844
 40
0.120066
 40
0.182913
 40
0.245774
 40
0.302984
 40
0.365825
 40
0.428661
 40
0.485873
 40
0.548735
 40
0.611583
 40
0.668807
 40
0.731645
 40
0.731645
 40
0.731645
 40
0.731645
 10
1.281534
 20
6.948824
 30
0.0
 10
1.284023
 20
6.970178
 30
0.0
 10
1.288777
 20
7.010974
 30
0.0
 10
1.335904
 20
7.056750
 30
0.0
 10
1.397677
 20
7.069366
 30
0.0
 10
1.459937
 20
7.056758
 30
0.0
 10
1.505687
 20
7.010969
 30
0.0
 10
1.518298
 20
6.948826
 30
0.0
 10
1.505685
 20
6.886683
 30
0.0
 10
1.459938
 20
6.840895
 30
0.0
 10
1.397677
 20
6.828280
 30
0.0
 10
1.335903
 20
6.840902
 30
0.0
 10
1.288779
 20
6.886679
 30
0.0
 10
1.284023
 20
6.927473
 30
0.0
 10
1.281534
 20
6.948824
 30
0.0
 11
1.281534
 21
6.948824
 31
0.0
 11
1.296172
 21
7.009940
 31
0.0
 11
1.336637
 21
7.050398
 31
0.0
 11
1.397756
 21
7.065033
 31
0.0
 11
1.458891
 21
7.050398
 31
0.0
 11
1.499340
 21
7.009940
 31
0.0
 11
1.513965
 21
6.948824
 31
0.0
 11
1.499340
 21
6.887715
 31
0.0
 11
1.458891
 21
6.847253
 31
0.0
 11
1.397756
 21
6.832616
 31
0.0
 11
1.336637
 21
6.847253
 31
0.0
 11
1.296172
 21
6.887715
 31
0.0
 11
1.281534
 21
6.948824
 31
0.0
  0
LINE
  5
113
100
AcDbEntity
  8
text
 62
1
100
AcDbLine
 10
1.038088
 20
7.640868
 30
0.0
 11
1.131019
 21
7.640868
 31
0.0
  0
LINE
  5
114
100
AcDbEntity
  8
text
 62
1
100
AcDbLine
 10
1.084533
 20
7.594382
 30
0.0
 11
1.084533
 21
7.687368
 31
0.0
  0
SPLINE
  5
115
100
AcDbEntity
  8
text
 62
1
100
AcDbSpline
 70
0
 71
3
 72
19
 73
15
 74
13
 40
0.000000
 40
0.000000
 40
0.000000
 40
0.000000
 40
0.062844
 40
0.120066
 40
0.182913
 40
0.245774
 40
0.302984
 40
0.365825
 40
0.428661
 40
0.485873
 40
0.548735
 40
0.611583
 40
0.668807
 40
0.731645
 40
0.731645
 40
0.731645
 40
0.731645
 10
0.968311
 20
7.640868
 30
0.0
 10
0.970799
 20
7.662222
 30
0.0
 10
0.975553
 20
7.703018
 30
0.0
 10
1.022680
 20
7.748794
 30
0.0
 10
1.084453
 20
7.761411
 30
0.0
 10
1.146714
 20
7.748802
 30
0.0
 10
1.192464
 20
7.703014
 30
0.0
 10
1.205074
 20
7.640870
 30
0.0
 10
1.192462
 20
7.578728
 30
0.0
 10
1.146715
 20
7.532939
 30
0.0
 10
1.084453
 20
7.520324
 30
0.0
 10
1.022679
 20
7.532946
 30
0.0
 10
0.975556
 20
7.578723
 30
0.0
 10
0.970800
 20
7.619517
 30
0.0
 10
0.968311
 20
7.640868
 30
0.0
 11
0.968311
 21
7.640868
 31
0.0
 11
0.982949
 21
7.701984
 31
0.0
 11
1.023414
 21
7.742443
 31
0.0
 11
1.084533
 21
7.757077
 31
0.0
 11
1.145667
 21
7.742443
 31
0.0
 11
1.186116
 21
7.701984
 31
0.0
 11
1.200741
 21
7.640868
 31
0.0
 11
1.186116
 21
7.579759
 31
0.0
 11
1.145667
 21
7.539298
 31
0.0
 11
1.084533
 21
7.524660
 31
0.0
 11
1.023414
 21
7.539298
 31
0.0
 11
0.982949
 21
7.579759
 31
0.0
 11
0.968311
 21
7.640868
 31
0.0
  0
LINE
  5
116
100
AcDbEntity
  8
text
 62
1
100
AcDbLine
 10
1.037094
 20
8.738847
 30
0.0
 11
1.130025
 21
8.738847
 31
0.0
  0
LINE
  5
117
100
AcDbEntity
  8
text
 62
1
100
AcDbLine
 10
1.083538
 20
8.692361
 30
0.0
 11
1.083538
 21
8.785347
 31
0.0
  0
SPLINE
  5
118
100
AcDbEntity
  8
text
 62
1
100
AcDbSpline
 70
0
 71
3
 72
19
 73
15
 74
13
 40
0.000000
 40
0.000000
 40
0.000000
 40
0.000000
 40
0.062844
 40
0.120066
 40
0.182913
 40
0.245774
 40
0.302984
 40
0.365825
 40
0.428661
 40
0.485873
 40
0.548735
 40
0.611583
 40
0.668807
 40
0.731645
 40
0.731645
 40
0.731645
 40
0.731645
 10
0.967316
 20
8.738847
 30
0.0
 10
0.969805
 20
8.760201
 30
0.0
 10
0.974559
 20
8.800997
 30
0.0
 10
1.021686
 20
8.846773
 30
0.0
 10
1.083459
 20
8.859389
 30
0.0
 10
1.145719
 20
8.846781
 30
0.0
 10
1.191469
 20
8.800992
 30
0.0
 10
1.204080
 20
8.738849
 30
0.0
 10
1.191467
 20
8.676706
 30
0.0
 10
1.145720
 20
8.630918
 30
0.0
 10
1.083459
 20
8.618303
 30
0.0
 10
1.021685
 20
8.630925
 30
0.0
 10
0.974561
 20
8.676701
 30
0.0
 10
0.969805
 20
8.717496
 30
0.0
 10
0.967316
 20
8.738847
 30
0.0
 11
0.967316
 21
8.738847
 31
0.0
 11
0.981954
 21
8.799963
 31
0.0
 11
1.022419
 21
8.840421
 31
0.0
 11
1.083538
 21
8.855055
 31
0.0
 11
1.144673
 21
8.840421
 31
0.0
 11
1.185122
 21
8.799963
 31
0.0
 11
1.199747
 21
8.738847
 31
0.0
 11
1.185122
 21
8.677738
 31
0.0
 11
1.144673
 21
8.637276
 31
0.0
 11
1.083538
 21
8.622639
 31
0.0
 11
1.022419
 21
8.637276
 31
0.0
 11
0.981954
 21
8.677738
 31
0.0
 11
0.967316
 21
8.738847
 31
0.0
  0
LINE
  5
119
100
AcDbEntity
  8
text
 62
1
100
AcDbLine
 10
1.038088
 20
8.193373
 30
0.0
 11
1.131019
 21
8.193373
 31
0.0
  0
LINE
  5
11a
100
AcDbEntity
  8
text
 62
1
100
AcDbLine
 10
1.084533
 20
8.146887
 30
0.0
 11
1.084533
 21
8.239873
 31
0.0
  0
SPLINE
  5
11b
100
AcDbEntity
  8
text
 62
1
100
AcDbSpline
 70
0
 71
3
 72
19
 73
15
 74
13
 40
0.000000
 40
0.000000
 40
0.000000
 40
0.000000
 40
0.062844
 40
0.120066
 40
0.182913
 40
0.245774
 40
0.302984
 40
0.365825
 40
0.428661
 40
0.485873
 40
0.548735
 40
0.611583
 40
0.668807
 40
0.731645
 40
0.731645
 40
0.731645
 40
0.731645
 10
0.968311
 20
8.193373
 30
0.0
 10
0.970799
 20
8.214727
 30
0.0
 10
0.975553
 20
8.255523
 30
0.0
 10
1.022680
 20
8.301299
 30
0.0
 10
1.084453
 20
8.313915
 30
0.0
 10
1.146714
 20
8.301307
 30
0.0
 10
1.192464
 20
8.255519
 30
0.0
 10
1.205074
 20
8.193375
 30
0.0
 10
1.192462
 20
8.131232
 30
0.0
 10
1.146715
 20
8.085444
 30
0.0
 10
1.084453
 20
8.072829
 30
0.0
 10
1.022679
 20
8.085451
 30
0.0
 10
0.975556
 20
8.131228
 30
0.0
 10
0.970800
 20
8.172022
 30
0.0
 10
0.968311
 20
8.193373
 30
0.0
 11
0.968311
 21
8.193373
 31
0.0
 11
0.982949
 21
8.254489
 31
0.0
 11
1.023414
 21
8.294947
 31
0.0
 11
1.084533
 21
8.309582
 31
0.0
 11
1.145667
 21
8.294947
 31
0.0
 11
1.186116
 21
8.254489
 31
0.0
 11
1.200741
 21
8.193373
 31
0.0
 11
1.186116
 21
8.132264
 31
0.0
 11
1.145667
 21
8.091802
 31
0.0
 11
1.084533
 21
8.077165
 31
0.0
 11
1.023414
 21
8.091802
 31
0.0
 11
0.982949
 21
8.132264
 31
0.0
 11
0.968311
 21
8.193373
 31
0.0
  0
LINE
  5
11c
100
AcDbEntity
  8
text
 62
1
100
AcDbLine
 10
2.193700
 20
9.291784
 30
0.0
 11
2.286631
 21
9.291784
 31
0.0
  0
LINE
  5
11d
100
AcDbEntity
  8
text
 62
1
100
AcDbLine
 10
2.240145
 20
9.245298
 30
0.0
 11
2.240145
 21
9.338284
 31
0.0
  0
SPLINE
  5
11e
100
AcDbEntity
  8
text
 62
1
100
AcDbSpline
 70
0
 71
3
 72
19
 73
15
 74
13
 40
0.000000
 40
0.000000
 40
0.000000
 40
0.000000
 40
0.062844
 40
0.120066
 40
0.182913
 40
0.245774
 40
0.302984
 40
0.365825
 40
0.428661
 40
0.485873
 40
0.548735
 40
0.611583
 40
0.668807
 40
0.731645
 40
0.731645
 40
0.731645
 40
0.731645
 10
2.123922
 20
9.291784
 30
0.0
 10
2.126411
 20
9.313138
 30
0.0
 10
2.131165
 20
9.353934
 30
0.0
 10
2.178292
 20
9.399710
 30
0.0
 10
2.240065
 20
9.412326
 30
0.0
 10
2.302326
 20
9.399718
 30
0.0
 10
2.348076
 20
9.353929
 30
0.0
 10
2.360686
 20
9.291786
 30
0.0
 10
2.348073
 20
9.229643
 30
0.0
 10
2.302326
 20
9.183855
 30
0.0
 10
2.240065
 20
9.171240
 30
0.0
 10
2.178291
 20
9.183862
 30
0.0
 10
2.131168
 20
9.229638
 30
0.0
 10
2.126412
 20
9.270433
 30
0.0
 10
2.123922
 20
9.291784
 30
0.0
 11
2.123922
 21
9.291784
 31
0.0
 11
2.138560
 21
9.352900
 31
0.0
 11
2.179025
 21
9.393358
 31
0.0
 11
2.240145
 21
9.407992
 31
0.0
 11
2.301279
 21
9.393358
 31
0.0
 11
2.341728
 21
9.352900
 31
0.0
 11
2.356353
 21
9.291784
 31
0.0
 11
2.341728
 21
9.230675
 31
0.0
 11
2.301279
 21
9.190213
 31
0.0
 11
2.240145
 21
9.175576
 31
0.0
 11
2.179025
 21
9.190213
 31
0.0
 11
2.138560
 21
9.230675
 31
0.0
 11
2.123922
 21
9.291784
 31
0.0
  0
LINE
  5
11f
100
AcDbEntity
  8
text
 62
1
100
AcDbLine
 10
2.193644
 20
7.640868
 30
0.0
 11
2.286575
 21
7.640868
 31
0.0
  0
LINE
  5
120
100
AcDbEntity
  8
text
 62
1
100
AcDbLine
 10
2.240088
 20
7.594382
 30
0.0
 11
2.240088
 21
7.687368
 31
0.0
  0
SPLINE
  5
121
100
AcDbEntity
  8
text
 62
1
100
AcDbSpline
 70
0
 71
3
 72
19
 73
15
 74
13
 40
0.000000
 40
0.000000
 40
0.000000
 40
0.000000
 40
0.062844
 40
0.120066
 40
0.182913
 40
0.245774
 40
0.302984
 40
0.365825
 40
0.428661
 40
0.485873
 40
0.548735
 40
0.611583
 40
0.668807
 40
0.731645
 40
0.731645
 40
0.731645
 40
0.731645
 10
2.123866
 20
7.640868
 30
0.0
 10
2.126355
 20
7.662222
 30
0.0
 10
2.131109
 20
7.703018
 30
0.0
 10
2.178236
 20
7.748794
 30
0.0
 10
2.240009
 20
7.761411
 30
0.0
 10
2.302269
 20
7.748802
 30
0.0
 10
2.348019
 20
7.703014
 30
0.0
 10
2.360630
 20
7.640870
 30
0.0
 10
2.348017
 20
7.578728
 30
0.0
 10
2.302270
 20
7.532939
 30
0.0
 10
2.240009
 20
7.520324
 30
0.0
 10
2.178235
 20
7.532946
 30
0.0
 10
2.131111
 20
7.578723
 30
0.0
 10
2.126355
 20
7.619517
 30
0.0
 10
2.123866
 20
7.640868
 30
0.0
 11
2.123866
 21
7.640868
 31
0.0
 11
2.138504
 21
7.701984
 31
0.0
 11
2.178969
 21
7.742443
 31
0.0
 11
2.240088
 21
7.757077
 31
0.0
 11
2.301223
 21
7.742443
 31
0.0
 11
2.341672
 21
7.701984
 31
0.0
 11
2.356297
 21
7.640868
 31
0.0
 11
2.341672
 21
7.579759
 31
0.0
 11
2.301223
 21
7.539298
 31
0.0
 11
2.240088
 21
7.524660
 31
0.0
 11
2.178969
 21
7.539298
 31
0.0
 11
2.138504
 21
7.579759
 31
0.0
 11
2.123866
 21
7.640868
 31
0.0
  0
LINE
  5
122
100
AcDbEntity
  8
text
 62
1
100
AcDbLine
 10
2.192650
 20
8.738847
 30
0.0
 11
2.285580
 21
8.738847
 31
0.0
  0
LINE
  5
123
100
AcDbEntity
  8
text
 62
1
100
AcDbLine
 10
2.239094
 20
8.692361
 30
0.0
 11
2.239094
 21
8.785347
 31
0.0
  0
SPLINE
  5
124
100
AcDbEntity
  8
text
 62
1
100
AcDbSpline
 70
0
 71
3
 72
19
 73
15
 74
13
 40
0.000000
 40
0.000000
 40
0.000000
 40
0.000000
 40
0.062844
 40
0.120066
 40
0.182913
 40
0.245774
 40
0.302984
 40
0.365825
 40
0.428661
 40
0.485873
 40
0.548735
 40
0.611583
 40
0.668807
 40
0.731645
 40
0.731645
 40
0.731645
 40
0.731645
 10
2.122872
 20
8.738847
 30
0.0
 10
2.125360
 20
8.760201
 30
0.0
 10
2.130115
 20
8.800997
 30
0.0
 10
2.177241
 20
8.846773
 30
0.0
 10
2.239015
 20
8.859389
 30
0.0
 10
2.301275
 20
8.846781
 30
0.0
 10
2.347025
 20
8.800992
 30
0.0
 10
2.359636
 20
8.738849
 30
0.0
 10
2.347023
 20
8.676706
 30
0.0
 10
2.301276
 20
8.630918
 30
0.0
 10
2.239015
 20
8.618303
 30
0.0
 10
2.177240
 20
8.630925
 30
0.0
 10
2.130117
 20
8.676701
 30
0.0
 10
2.125361
 20
8.717496
 30
0.0
 10
2.122872
 20
8.738847
 30
0.0
 11
2.122872
 21
8.738847
 31
0.0
 11
2.137510
 21
8.799963
 31
0.0
 11
2.177975
 21
8.840421
 31
0.0
 11
2.239094
 21
8.855055
 31
0.0
 11
2.300228
 21
8.840421
 31
0.0
 11
2.340677
 21
8.799963
 31
0.0
 11
2.355302
 21
8.738847
 31
0.0
 11
2.340677
 21
8.677738
 31
0.0
 11
2.300228
 21
8.637276
 31
0.0
 11
2.239094
 21
8.622639
 31
0.0
 11
2.177975
 21
8.637276
 31
0.0
 11
2.137510
 21
8.677738
 31
0.0
 11
2.122872
 21
8.738847
 31
0.0
  0
LINE
  5
125
100
AcDbEntity
  8
text
 62
1
100
AcDbLine
 10
2.193644
 20
8.193373
 30
0.0
 11
2.286575
 21
8.193373
 31
0.0
  0
LINE
  5
126
100
AcDbEntity
  8
text
 62
1
100
AcDbLine
 10
2.240088
 20
8.146887
 30
0.0
 11
2.240088
 21
8.239873
 31
0.0
  0
SPLINE
  5
127
100
AcDbEntity
  8
text
 62
1
100
AcDbSpline
 70
0
 71
3
 72
19
 73
15
 74
13
 40
0.000000
 40
0.000000
 40
0.000000
 40
0.000000
 40
0.062844
 40
0.120066
 40
0.182913
 40
0.245774
 40
0.302984
 40
0.365825
 40
0.428661
 40
0.485873
 40
0.548735
 40
0.611583
 40
0.668807
 40
0.731645
 40
0.731645
 40
0.731645
 40
0.731645
 10
2.123866
 20
8.193373
 30
0.0
 10
2.126355
 20
8.214727
 30
0.0
 10
2.131109
 20
8.255523
 30
0.0
 10
2.178236
 20
8.301299
 30
0.0
 10
2.240009
 20
8.313915
 30
0.0
 10
2.302269
 20
8.301307
 30
0.0
 10
2.348019
 20
8.255519
 30
0.0
 10
2.360630
 20
8.193375
 30
0.0
 10
2.348017
 20
8.131232
 30
0.0
 10
2.302270
 20
8.085444
 30
0.0
 10
2.240009
 20
8.072829
 30
0.0
 10
2.178235
 20
8.085451
 30
0.0
 10
2.131111
 20
8.131228
 30
0.0
 10
2.126355
 20
8.172022
 30
0.0
 10
2.123866
 20
8.193373
 30
0.0
 11
2.123866
 21
8.193373
 31
0.0
 11
2.138504
 21
8.254489
 31
0.0
 11
2.178969
 21
8.294947
 31
0.0
 11
2.240088
 21
8.309582
 31
0.0
 11
2.301223
 21
8.294947
 31
0.0
 11
2.341672
 21
8.254489
 31
0.0
 11
2.356297
 21
8.193373
 31
0.0
 11
2.341672
 21
8.132264
 31
0.0
 11
2.301223
 21
8.091802
 31
0.0
 11
2.240088
 21
8.077165
 31
0.0
 11
2.178969
 21
8.091802
 31
0.0
 11
2.138504
 21
8.132264
 31
0.0
 11
2.123866
 21
8.193373
 31
0.0
  0
LINE
  5
128
100
AcDbEntity
  8
text
 62
1
100
AcDbLine
 10
2.393700
 20
9.869562
 30
0.0
 11
2.486631
 21
9.869562
 31
0.0
  0
LINE
  5
129
100
AcDbEntity
  8
text
 62
1
100
AcDbLine
 10
2.440145
 20
9.823076
 30
0.0
 11
2.440145
 21
9.916062
 31
0.0
  0
SPLINE
  5
12a
100
AcDbEntity
  8
text
 62
1
100
AcDbSpline
 70
0
 71
3
 72
19
 73
15
 74
13
 40
0.000000
 40
0.000000
 40
0.000000
 40
0.000000
 40
0.062844
 40
0.120066
 40
0.182913
 40
0.245774
 40
0.302984
 40
0.365825
 40
0.428661
 40
0.485873
 40
0.548735
 40
0.611583
 40
0.668807
 40
0.731645
 40
0.731645
 40
0.731645
 40
0.731645
 10
2.323922
 20
9.869562
 30
0.0
 10
2.326411
 20
9.890915
 30
0.0
 10
2.331165
 20
9.931712
 30
0.0
 10
2.378292
 20
9.977488
 30
0.0
 10
2.440065
 20
9.990104
 30
0.0
 10
2.502326
 20
9.977495
 30
0.0
 10
2.548076
 20
9.931707
 30
0.0
 10
2.560686
 20
9.869564
 30
0.0
 10
2.548073
 20
9.807421
 30
0.0
 10
2.502326
 20
9.761632
 30
0.0
 10
2.440065
 20
9.749018
 30
0.0
 10
2.378291
 20
9.761640
 30
0.0
 10
2.331168
 20
9.807416
 30
0.0
 10
2.326412
 20
9.848211
 30
0.0
 10
2.323922
 20
9.869562
 30
0.0
 11
2.323922
 21
9.869562
 31
0.0
 11
2.338560
 21
9.930678
 31
0.0
 11
2.379025
 21
9.971136
 31
0.0
 11
2.440145
 21
9.985770
 31
0.0
 11
2.501279
 21
9.971136
 31
0.0
 11
2.541728
 21
9.930678
 31
0.0
 11
2.556353
 21
9.869562
 31
0.0
 11
2.541728
 21
9.808452
 31
0.0
 11
2.501279
 21
9.767991
 31
0.0
 11
2.440145
 21
9.753354
 31
0.0
 11
2.379025
 21
9.767991
 31
0.0
 11
2.338560
 21
9.808452
 31
0.0
 11
2.323922
 21
9.869562
 31
0.0
  0
LINE
  5
12b
100
AcDbEntity
  8
text
 62
4
100
AcDbLine
 10
2.935254
 20
10.003408
 30
0.0
 11
2.935254
 21
10.003408
 31
0.0
  0
SPLINE
  5
12c
100
AcDbEntity
  8
text
 62
4
100
AcDbSpline
 70
0
 71
3
 72
31
 73
27
 74
25
 40
0.000000
 40
0.000000
 40
0.000000
 40
0.000000
 40
0.002231
 40
0.004476
 40
0.006796
 40
0.009181
 40
0.011600
 40
0.014069
 40
0.016538
 40
0.018957
 40
0.021342
 40
0.023662
 40
0.025908
 40
0.028138
 40
0.030369
 40
0.032614
 40
0.034935
 40
0.037319
 40
0.039738
 40
0.042207
 40
0.044677
 40
0.047095
 40
0.049480
 40
0.051801
 40
0.054046
 40
0.056276
 40
0.056276
 40
0.056276
 40
0.056276
 10
2.935254
 20
10.003408
 30
0.0
 10
2.934774
 20
10.002834
 30
0.0
 10
2.933811
 20
10.001681
 30
0.0
 10
2.931794
 20
10.000551
 30
0.0
 10
2.929531
 20
9.999964
 30
0.0
 10
2.927129
 20
9.999990
 30
0.0
 10
2.924762
 20
10.000610
 30
0.0
 10
2.922581
 20
10.001782
 30
0.0
 10
2.920734
 20
10.003430
 30
0.0
 10
2.919341
 20
10.005443
 30
0.0
 10
2.918498
 20
10.007690
 30
0.0
 10
2.918267
 20
10.010023
 30
0.0
 10
2.918670
 20
10.012283
 30
0.0
 10
2.919685
 20
10.014310
 30
0.0
 10
2.921243
 20
10.015958
 30
0.0
 10
2.923228
 20
10.017109
 30
0.0
 10
2.925500
 20
10.017690
 30
0.0
 10
2.927900
 20
10.017666
 30
0.0
 10
2.930268
 20
10.017046
 30
0.0
 10
2.932448
 20
10.015873
 30
0.0
 10
2.934295
 20
10.014226
 30
0.0
 10
2.935687
 20
10.012213
 30
0.0
 10
2.936534
 20
10.009965
 30
0.0
 10
2.936756
 20
10.007637
 30
0.0
 10
2.936384
 20
10.005356
 30
0.0
 10
2.935630
 20
10.004056
 30
0.0
 10
2.935254
 20
10.003408
 30
0.0
 11
2.935254
 21
10.003408
 31
0.0
 11
2.933723
 21
10.001786
 31
0.0
 11
2.931785
 21
10.000654
 31
0.0
 11
2.929539
 21
10.000070
 31
0.0
 11
2.927154
 21
10.000086
 31
0.0
 11
2.924813
 21
10.000694
 31
0.0
 11
2.922637
 21
10.001862
 31
0.0
 11
2.920796
 21
10.003507
 31
0.0
 11
2.919424
 21
10.005499
 31
0.0
 11
2.918593
 21
10.007734
 31
0.0
 11
2.918373
 21
10.010045
 31
0.0
 11
2.918774
 21
10.012254
 31
0.0
 11
2.919775
 21
10.014247
 31
0.0
 11
2.921306
 21
10.015869
 31
0.0
 11
2.923245
 21
10.017002
 31
0.0
 11
2.925491
 21
10.017585
 31
0.0
 11
2.927876
 21
10.017569
 31
0.0
 11
2.930216
 21
10.016961
 31
0.0
 11
2.932392
 21
10.015793
 31
0.0
 11
2.934234
 21
10.014148
 31
0.0
 11
2.935606
 21
10.012157
 31
0.0
 11
2.936436
 21
10.009921
 31
0.0
 11
2.936656
 21
10.007611
 31
0.0
 11
2.936255
 21
10.005402
 31
0.0
 11
2.935254
 21
10.003408
 31
0.0
  0
LINE
  5
12d
100
AcDbEntity
  8
text
 62
4
100
AcDbLine
 10
3.652111
 20
9.501460
 30
0.0
 11
3.652111
 21
9.501460
 31
0.0
  0
SPLINE
  5
12e
100
AcDbEntity
  8
text
 62
4
100
AcDbSpline
 70
0
 71
3
 72
31
 73
27
 74
25
 40
0.000000
 40
0.000000
 40
0.000000
 40
0.000000
 40
0.002231
 40
0.004476
 40
0.006796
 40
0.009181
 40
0.011600
 40
0.014069
 40
0.016538
 40
0.018957
 40
0.021342
 40
0.023662
 40
0.025908
 40
0.028138
 40
0.030369
 40
0.032614
 40
0.034935
 40
0.037319
 40
0.039738
 40
0.042207
 40
0.044677
 40
0.047095
 40
0.049480
 40
0.051801
 40
0.054046
 40
0.056276
 40
0.056276
 40
0.056276
 40
0.056276
 10
3.652111
 20
9.501460
 30
0.0
 10
3.651631
 20
9.500885
 30
0.0
 10
3.650667
 20
9.499733
 30
0.0
 10
3.648651
 20
9.498603
 30
0.0
 10
3.646388
 20
9.498015
 30
0.0
 10
3.643985
 20
9.498042
 30
0.0
 10
3.641618
 20
9.498662
 30
0.0
 10
3.639438
 20
9.499834
 30
0.0
 10
3.637591
 20
9.501482
 30
0.0
 10
3.636198
 20
9.503494
 30
0.0
 10
3.635354
 20
9.505741
 30
0.0
 10
3.635123
 20
9.508075
 30
0.0
 10
3.635526
 20
9.510334
 30
0.0
 10
3.636541
 20
9.512362
 30
0.0
 10
3.638099
 20
9.514009
 30
0.0
 10
3.640085
 20
9.515161
 30
0.0
 10
3.642357
 20
9.515742
 30
0.0
 10
3.644757
 20
9.515718
 30
0.0
 10
3.647124
 20
9.515097
 30
0.0
 10
3.649304
 20
9.513925
 30
0.0
 10
3.651152
 20
9.512277
 30
0.0
 10
3.652544
 20
9.510265
 30
0.0
 10
3.653390
 20
9.508016
 30
0.0
 10
3.653612
 20
9.505689
 30
0.0
 10
3.653240
 20
9.503407
 30
0.0
 10
3.652487
 20
9.502108
 30
0.0
 10
3.652111
 20
9.501460
 30
0.0
 11
3.652111
 21
9.501460
 31
0.0
 11
3.650580
 21
9.499838
 31
0.0
 11
3.648641
 21
9.498706
 31
0.0
 11
3.646395
 21
9.498122
 31
0.0
 11
3.644010
 21
9.498138
 31
0.0
 11
3.641669
 21
9.498746
 31
0.0
 11
3.639494
 21
9.499914
 31
0.0
 11
3.637652
 21
9.501559
 31
0.0
 11
3.636280
 21
9.503551
 31
0.0
 11
3.635449
 21
9.505786
 31
0.0
 11
3.635230
 21
9.508096
 31
0.0
 11
3.635631
 21
9.510305
 31
0.0
 11
3.636631
 21
9.512299
 31
0.0
 11
3.638162
 21
9.513921
 31
0.0
 11
3.640101
 21
9.515053
 31
0.0
 11
3.642347
 21
9.515637
 31
0.0
 11
3.644732
 21
9.515621
 31
0.0
 11
3.647073
 21
9.515013
 31
0.0
 11
3.649249
 21
9.513845
 31
0.0
 11
3.651090
 21
9.512200
 31
0.0
 11
3.652462
 21
9.510208
 31
0.0
 11
3.653293
 21
9.507973
 31
0.0
 11
3.653512
 21
9.505663
 31
0.0
 11
3.653112
 21
9.503453
 31
0.0
 11
3.652111
 21
9.501460
 31
0.0
  0
LINE
  5
12f
100
AcDbEntity
  8
text
 62
4
100
AcDbLine
 10
3.290089
 20
9.754950
 30
0.0
 11
3.290089
 21
9.754950
 31
0.0
  0
SPLINE
  5
130
100
AcDbEntity
  8
text
 62
4
100
AcDbSpline
 70
0
 71
3
 72
31
 73
27
 74
25
 40
0.000000
 40
0.000000
 40
0.000000
 40
0.000000
 40
0.002231
 40
0.004476
 40
0.006796
 40
0.009181
 40
0.011600
 40
0.014069
 40
0.016538
 40
0.018957
 40
0.021342
 40
0.023662
 40
0.025908
 40
0.028138
 40
0.030369
 40
0.032614
 40
0.034935
 40
0.037319
 40
0.039738
 40
0.042207
 40
0.044677
 40
0.047095
 40
0.049480
 40
0.051801
 40
0.054046
 40
0.056276
 40
0.056276
 40
0.056276
 40
0.056276
 10
3.290089
 20
9.754950
 30
0.0
 10
3.289609
 20
9.754376
 30
0.0
 10
3.288645
 20
9.753223
 30
0.0
 10
3.286629
 20
9.752093
 30
0.0
 10
3.284366
 20
9.751506
 30
0.0
 10
3.281963
 20
9.751532
 30
0.0
 10
3.279596
 20
9.752152
 30
0.0
 10
3.277416
 20
9.753324
 30
0.0
 10
3.275569
 20
9.754972
 30
0.0
 10
3.274176
 20
9.756985
 30
0.0
 10
3.273332
 20
9.759232
 30
0.0
 10
3.273101
 20
9.761565
 30
0.0
 10
3.273504
 20
9.763825
 30
0.0
 10
3.274519
 20
9.765853
 30
0.0
 10
3.276078
 20
9.767500
 30
0.0
 10
3.278063
 20
9.768651
 30
0.0
 10
3.280335
 20
9.769233
 30
0.0
 10
3.282735
 20
9.769208
 30
0.0
 10
3.285103
 20
9.768588
 30
0.0
 10
3.287283
 20
9.767415
 30
0.0
 10
3.289130
 20
9.765768
 30
0.0
 10
3.290522
 20
9.763755
 30
0.0
 10
3.291368
 20
9.761507
 30
0.0
 10
3.291590
 20
9.759179
 30
0.0
 10
3.291219
 20
9.756898
 30
0.0
 10
3.290465
 20
9.755598
 30
0.0
 10
3.290089
 20
9.754950
 30
0.0
 11
3.290089
 21
9.754950
 31
0.0
 11
3.288558
 21
9.753328
 31
0.0
 11
3.286619
 21
9.752196
 31
0.0
 11
3.284373
 21
9.751612
 31
0.0
 11
3.281989
 21
9.751628
 31
0.0
 11
3.279648
 21
9.752236
 31
0.0
 11
3.277472
 21
9.753404
 31
0.0
 11
3.275630
 21
9.755049
 31
0.0
 11
3.274259
 21
9.757041
 31
0.0
 11
3.273428
 21
9.759276
 31
0.0
 11
3.273208
 21
9.761587
 31
0.0
 11
3.273609
 21
9.763796
 31
0.0
 11
3.274610
 21
9.765789
 31
0.0
 11
3.276141
 21
9.767411
 31
0.0
 11
3.278079
 21
9.768544
 31
0.0
 11
3.280325
 21
9.769127
 31
0.0
 11
3.282710
 21
9.769111
 31
0.0
 11
3.285051
 21
9.768503
 31
0.0
 11
3.287227
 21
9.767336
 31
0.0
 11
3.289068
 21
9.765690
 31
0.0
 11
3.290440
 21
9.763699
 31
0.0
 11
3.291271
 21
9.761463
 31
0.0
 11
3.291491
 21
9.759153
 31
0.0
 11
3.291090
 21
9.756944
 31
0.0
 11
3.290089
 21
9.754950
 31
0.0
  0
LINE
  5
131
100
AcDbEntity
  8
text
 62
4
100
AcDbLine
 10
2.935254
 20
8.892297
 30
0.0
 11
2.935254
 21
8.892297
 31
0.0
  0
SPLINE
  5
132
100
AcDbEntity
  8
text
 62
4
100
AcDbSpline
 70
0
 71
3
 72
31
 73
27
 74
25
 40
0.000000
 40
0.000000
 40
0.000000
 40
0.000000
 40
0.002231
 40
0.004476
 40
0.006796
 40
0.009181
 40
0.011600
 40
0.014069
 40
0.016538
 40
0.018957
 40
0.021342
 40
0.023662
 40
0.025908
 40
0.028138
 40
0.030369
 40
0.032614
 40
0.034935
 40
0.037319
 40
0.039738
 40
0.042207
 40
0.044677
 40
0.047095
 40
0.049480
 40
0.051801
 40
0.054046
 40
0.056276
 40
0.056276
 40
0.056276
 40
0.056276
 10
2.935254
 20
8.892297
 30
0.0
 10
2.934774
 20
8.891723
 30
0.0
 10
2.933811
 20
8.890570
 30
0.0
 10
2.931794
 20
8.889440
 30
0.0
 10
2.929531
 20
8.888853
 30
0.0
 10
2.927129
 20
8.888879
 30
0.0
 10
2.924762
 20
8.889499
 30
0.0
 10
2.922581
 20
8.890671
 30
0.0
 10
2.920734
 20
8.892319
 30
0.0
 10
2.919341
 20
8.894331
 30
0.0
 10
2.918498
 20
8.896578
 30
0.0
 10
2.918267
 20
8.898912
 30
0.0
 10
2.918670
 20
8.901172
 30
0.0
 10
2.919685
 20
8.903199
 30
0.0
 10
2.921243
 20
8.904846
 30
0.0
 10
2.923228
 20
8.905998
 30
0.0
 10
2.925500
 20
8.906579
 30
0.0
 10
2.927900
 20
8.906555
 30
0.0
 10
2.930268
 20
8.905934
 30
0.0
 10
2.932448
 20
8.904762
 30
0.0
 10
2.934295
 20
8.903114
 30
0.0
 10
2.935687
 20
8.901102
 30
0.0
 10
2.936534
 20
8.898853
 30
0.0
 10
2.936756
 20
8.896526
 30
0.0
 10
2.936384
 20
8.894245
 30
0.0
 10
2.935630
 20
8.892945
 30
0.0
 10
2.935254
 20
8.892297
 30
0.0
 11
2.935254
 21
8.892297
 31
0.0
 11
2.933723
 21
8.890675
 31
0.0
 11
2.931785
 21
8.889543
 31
0.0
 11
2.929539
 21
8.888959
 31
0.0
 11
2.927154
 21
8.888975
 31
0.0
 11
2.924813
 21
8.889583
 31
0.0
 11
2.922637
 21
8.890751
 31
0.0
 11
2.920796
 21
8.892396
 31
0.0
 11
2.919424
 21
8.894388
 31
0.0
 11
2.918593
 21
8.896623
 31
0.0
 11
2.918373
 21
8.898933
 31
0.0
 11
2.918774
 21
8.901143
 31
0.0
 11
2.919775
 21
8.903136
 31
0.0
 11
2.921306
 21
8.904758
 31
0.0
 11
2.923245
 21
8.905890
 31
0.0
 11
2.925491
 21
8.906474
 31
0.0
 11
2.927876
 21
8.906458
 31
0.0
 11
2.930216
 21
8.905850
 31
0.0
 11
2.932392
 21
8.904682
 31
0.0
 11
2.934234
 21
8.903037
 31
0.0
 11
2.935606
 21
8.901045
 31
0.0
 11
2.936436
 21
8.898810
 31
0.0
 11
2.936656
 21
8.896500
 31
0.0
 11
2.936255
 21
8.894291
 31
0.0
 11
2.935254
 21
8.892297
 31
0.0
  0
LINE
  5
133
100
AcDbEntity
  8
text
 62
4
100
AcDbLine
 10
3.652111
 20
8.390349
 30
0.0
 11
3.652111
 21
8.390349
 31
0.0
  0
SPLINE
  5
134
100
AcDbEntity
  8
text
 62
4
100
AcDbSpline
 70
0
 71
3
 72
31
 73
27
 74
25
 40
0.000000
 40
0.000000
 40
0.000000
 40
0.000000
 40
0.002231
 40
0.004476
 40
0.006796
 40
0.009181
 40
0.011600
 40
0.014069
 40
0.016538
 40
0.018957
 40
0.021342
 40
0.023662
 40
0.025908
 40
0.028138
 40
0.030369
 40
0.032614
 40
0.034935
 40
0.037319
 40
0.039738
 40
0.042207
 40
0.044677
 40
0.047095
 40
0.049480
 40
0.051801
 40
0.054046
 40
0.056276
 40
0.056276
 40
0.056276
 40
0.056276
 10
3.652111
 20
8.390349
 30
0.0
 10
3.651631
 20
8.389774
 30
0.0
 10
3.650667
 20
8.388621
 30
0.0
 10
3.648651
 20
8.387492
 30
0.0
 10
3.646388
 20
8.386904
 30
0.0
 10
3.643985
 20
8.386930
 30
0.0
 10
3.641618
 20
8.387550
 30
0.0
 10
3.639438
 20
8.388723
 30
0.0
 10
3.637591
 20
8.390370
 30
0.0
 10
3.636198
 20
8.392383
 30
0.0
 10
3.635354
 20
8.394630
 30
0.0
 10
3.635123
 20
8.396964
 30
0.0
 10
3.635526
 20
8.399223
 30
0.0
 10
3.636541
 20
8.401251
 30
0.0
 10
3.638099
 20
8.402898
 30
0.0
 10
3.640085
 20
8.404050
 30
0.0
 10
3.642357
 20
8.404631
 30
0.0
 10
3.644757
 20
8.404606
 30
0.0
 10
3.647124
 20
8.403986
 30
0.0
 10
3.649304
 20
8.402814
 30
0.0
 10
3.651152
 20
8.401166
 30
0.0
 10
3.652544
 20
8.399154
 30
0.0
 10
3.653390
 20
8.396905
 30
0.0
 10
3.653612
 20
8.394578
 30
0.0
 10
3.653240
 20
8.392296
 30
0.0
 10
3.652487
 20
8.390997
 30
0.0
 10
3.652111
 20
8.390349
 30
0.0
 11
3.652111
 21
8.390349
 31
0.0
 11
3.650580
 21
8.388727
 31
0.0
 11
3.648641
 21
8.387594
 31
0.0
 11
3.646395
 21
8.387011
 31
0.0
 11
3.644010
 21
8.387027
 31
0.0
 11
3.641669
 21
8.387635
 31
0.0
 11
3.639494
 21
8.388803
 31
0.0
 11
3.637652
 21
8.390448
 31
0.0
 11
3.636280
 21
8.392440
 31
0.0
 11
3.635449
 21
8.394675
 31
0.0
 11
3.635230
 21
8.396985
 31
0.0
 11
3.635631
 21
8.399194
 31
0.0
 11
3.636631
 21
8.401188
 31
0.0
 11
3.638162
 21
8.402810
 31
0.0
 11
3.640101
 21
8.403942
 31
0.0
 11
3.642347
 21
8.404526
 31
0.0
 11
3.644732
 21
8.404510
 31
0.0
 11
3.647073
 21
8.403902
 31
0.0
 11
3.649249
 21
8.402734
 31
0.0
 11
3.651090
 21
8.401089
 31
0.0
 11
3.652462
 21
8.399097
 31
0.0
 11
3.653293
 21
8.396862
 31
0.0
 11
3.653512
 21
8.394551
 31
0.0
 11
3.653112
 21
8.392342
 31
0.0
 11
3.652111
 21
8.390349
 31
0.0
  0
LINE
  5
135
100
AcDbEntity
  8
text
 62
4
100
AcDbLine
 10
3.290089
 20
8.643839
 30
0.0
 11
3.290089
 21
8.643839
 31
0.0
  0
SPLINE
  5
136
100
AcDbEntity
  8
text
 62
4
100
AcDbSpline
 70
0
 71
3
 72
31
 73
27
 74
25
 40
0.000000
 40
0.000000
 40
0.000000
 40
0.000000
 40
0.002231
 40
0.004476
 40
0.006796
 40
0.009181
 40
0.011600
 40
0.014069
 40
0.016538
 40
0.018957
 40
0.021342
 40
0.023662
 40
0.025908
 40
0.028138
 40
0.030369
 40
0.032614
 40
0.034935
 40
0.037319
 40
0.039738
 40
0.042207
 40
0.044677
 40
0.047095
 40
0.049480
 40
0.051801
 40
0.054046
 40
0.056276
 40
0.056276
 40
0.056276
 40
0.056276
 10
3.290089
 20
8.643839
 30
0.0
 10
3.289609
 20
8.643265
 30
0.0
 10
3.288645
 20
8.642112
 30
0.0
 10
3.286629
 20
8.640982
 30
0.0
 10
3.284366
 20
8.640395
 30
0.0
 10
3.281963
 20
8.640421
 30
0.0
 10
3.279596
 20
8.641041
 30
0.0
 10
3.277416
 20
8.642213
 30
0.0
 10
3.275569
 20
8.643861
 30
0.0
 10
3.274176
 20
8.645873
 30
0.0
 10
3.273332
 20
8.648121
 30
0.0
 10
3.273101
 20
8.650454
 30
0.0
 10
3.273504
 20
8.652714
 30
0.0
 10
3.274519
 20
8.654741
 30
0.0
 10
3.276078
 20
8.656389
 30
0.0
 10
3.278063
 20
8.657540
 30
0.0
 10
3.280335
 20
8.658121
 30
0.0
 10
3.282735
 20
8.658097
 30
0.0
 10
3.285103
 20
8.657477
 30
0.0
 10
3.287283
 20
8.656304
 30
0.0
 10
3.289130
 20
8.654656
 30
0.0
 10
3.290522
 20
8.652644
 30
0.0
 10
3.291368
 20
8.650396
 30
0.0
 10
3.291590
 20
8.648068
 30
0.0
 10
3.291219
 20
8.645787
 30
0.0
 10
3.290465
 20
8.644487
 30
0.0
 10
3.290089
 20
8.643839
 30
0.0
 11
3.290089
 21
8.643839
 31
0.0
 11
3.288558
 21
8.642217
 31
0.0
 11
3.286619
 21
8.641085
 31
0.0
 11
3.284373
 21
8.640501
 31
0.0
 11
3.281989
 21
8.640517
 31
0.0
 11
3.279648
 21
8.641125
 31
0.0
 11
3.277472
 21
8.642293
 31
0.0
 11
3.275630
 21
8.643938
 31
0.0
 11
3.274259
 21
8.645930
 31
0.0
 11
3.273428
 21
8.648165
 31
0.0
 11
3.273208
 21
8.650476
 31
0.0
 11
3.273609
 21
8.652685
 31
0.0
 11
3.274610
 21
8.654678
 31
0.0
 11
3.276141
 21
8.656300
 31
0.0
 11
3.278079
 21
8.657433
 31
0.0
 11
3.280325
 21
8.658016
 31
0.0
 11
3.282710
 21
8.658000
 31
0.0
 11
3.285051
 21
8.657392
 31
0.0
 11
3.287227
 21
8.656224
 31
0.0
 11
3.289068
 21
8.654579
 31
0.0
 11
3.290440
 21
8.652587
 31
0.0
 11
3.291271
 21
8.650352
 31
0.0
 11
3.291491
 21
8.648042
 31
0.0
 11
3.291090
 21
8.645833
 31
0.0
 11
3.290089
 21
8.643839
 31
0.0
  0
LINE
  5
137
100
AcDbEntity
  8
text
 62
4
100
AcDbLine
 10
2.935254
 20
8.003408
 30
0.0
 11
2.935254
 21
8.003408
 31
0.0
  0
SPLINE
  5
138
100
AcDbEntity
  8
text
 62
4
100
AcDbSpline
 70
0
 71
3
 72
31
 73
27
 74
25
 40
0.000000
 40
0.000000
 40
0.000000
 40
0.000000
 40
0.002231
 40
0.004476
 40
0.006796
 40
0.009181
 40
0.011600
 40
0.014069
 40
0.016538
 40
0.018957
 40
0.021342
 40
0.023662
 40
0.025908
 40
0.028138
 40
0.030369
 40
0.032614
 40
0.034935
 40
0.037319
 40
0.039738
 40
0.042207
 40
0.044677
 40
0.047095
 40
0.049480
 40
0.051801
 40
0.054046
 40
0.056276
 40
0.056276
 40
0.056276
 40
0.056276
 10
2.935254
 20
8.003408
 30
0.0
 10
2.934774
 20
8.002834
 30
0.0
 10
2.933811
 20
8.001681
 30
0.0
 10
2.931794
 20
8.000551
 30
0.0
 10
2.929531
 20
7.999964
 30
0.0
 10
2.927129
 20
7.999990
 30
0.0
 10
2.924762
 20
8.000610
 30
0.0
 10
2.922581
 20
8.001782
 30
0.0
 10
2.920734
 20
8.003430
 30
0.0
 10
2.919341
 20
8.005443
 30
0.0
 10
2.918498
 20
8.007690
 30
0.0
 10
2.918267
 20
8.010023
 30
0.0
 10
2.918670
 20
8.012283
 30
0.0
 10
2.919685
 20
8.014310
 30
0.0
 10
2.921243
 20
8.015958
 30
0.0
 10
2.923228
 20
8.017109
 30
0.0
 10
2.925500
 20
8.017690
 30
0.0
 10
2.927900
 20
8.017666
 30
0.0
 10
2.930268
 20
8.017046
 30
0.0
 10
2.932448
 20
8.015873
 30
0.0
 10
2.934295
 20
8.014225
 30
0.0
 10
2.935687
 20
8.012213
 30
0.0
 10
2.936534
 20
8.009965
 30
0.0
 10
2.936756
 20
8.007637
 30
0.0
 10
2.936384
 20
8.005356
 30
0.0
 10
2.935630
 20
8.004056
 30
0.0
 10
2.935254
 20
8.003408
 30
0.0
 11
2.935254
 21
8.003408
 31
0.0
 11
2.933723
 21
8.001786
 31
0.0
 11
2.931785
 21
8.000654
 31
0.0
 11
2.929539
 21
8.000070
 31
0.0
 11
2.927154
 21
8.000086
 31
0.0
 11
2.924813
 21
8.000694
 31
0.0
 11
2.922637
 21
8.001862
 31
0.0
 11
2.920796
 21
8.003507
 31
0.0
 11
2.919424
 21
8.005499
 31
0.0
 11
2.918593
 21
8.007734
 31
0.0
 11
2.918373
 21
8.010045
 31
0.0
 11
2.918774
 21
8.012254
 31
0.0
 11
2.919775
 21
8.014247
 31
0.0
 11
2.921306
 21
8.015869
 31
0.0
 11
2.923245
 21
8.017002
 31
0.0
 11
2.925491
 21
8.017585
 31
0.0
 11
2.927876
 21
8.017569
 31
0.0
 11
2.930216
 21
8.016961
 31
0.0
 11
2.932392
 21
8.015793
 31
0.0
 11
2.934234
 21
8.014148
 31
0.0
 11
2.935606
 21
8.012156
 31
0.0
 11
2.936436
 21
8.009921
 31
0.0
 11
2.936656
 21
8.007611
 31
0.0
 11
2.936255
 21
8.005402
 31
0.0
 11
2.935254
 21
8.003408
 31
0.0
  0
LINE
  5
139
100
AcDbEntity
  8
text
 62
4
100
AcDbLine
 10
3.652111
 20
7.501460
 30
0.0
 11
3.652111
 21
7.501460
 31
0.0
  0
SPLINE
  5
13a
100
AcDbEntity
  8
text
 62
4
100
AcDbSpline
 70
0
 71
3
 72
31
 73
27
 74
25
 40
0.000000
 40
0.000000
 40
0.000000
 40
0.000000
 40
0.002231
 40
0.004476
 40
0.006796
 40
0.009181
 40
0.011600
 40
0.014069
 40
0.016538
 40
0.018957
 40
0.021342
 40
0.023662
 40
0.025908
 40
0.028138
 40
0.030369
 40
0.032614
 40
0.034935
 40
0.037319
 40
0.039738
 40
0.042207
 40
0.044677
 40
0.047095
 40
0.049480
 40
0.051801
 40
0.054046
 40
0.056276
 40
0.056276
 40
0.056276
 40
0.056276
 10
3.652111
 20
7.501460
 30
0.0
 10
3.651631
 20
7.500885
 30
0.0
 10
3.650667
 20
7.499733
 30
0.0
 10
3.648651
 20
7.498603
 30
0.0
 10
3.646388
 20
7.498015
 30
0.0
 10
3.643985
 20
7.498042
 30
0.0
 10
3.641618
 20
7.498661
 30
0.0
 10
3.639438
 20
7.499834
 30
0.0
 10
3.637591
 20
7.501482
 30
0.0
 10
3.636198
 20
7.503494
 30
0.0
 10
3.635354
 20
7.505741
 30
0.0
 10
3.635123
 20
7.508075
 30
0.0
 10
3.635526
 20
7.510334
 30
0.0
 10
3.636541
 20
7.512362
 30
0.0
 10
3.638099
 20
7.514009
 30
0.0
 10
3.640085
 20
7.515161
 30
0.0
 10
3.642357
 20
7.515742
 30
0.0
 10
3.644757
 20
7.515718
 30
0.0
 10
3.647124
 20
7.515097
 30
0.0
 10
3.649304
 20
7.513925
 30
0.0
 10
3.651152
 20
7.512277
 30
0.0
 10
3.652544
 20
7.510265
 30
0.0
 10
3.653390
 20
7.508016
 30
0.0
 10
3.653612
 20
7.505689
 30
0.0
 10
3.653240
 20
7.503407
 30
0.0
 10
3.652487
 20
7.502108
 30
0.0
 10
3.652111
 20
7.501460
 30
0.0
 11
3.652111
 21
7.501460
 31
0.0
 11
3.650580
 21
7.499838
 31
0.0
 11
3.648641
 21
7.498706
 31
0.0
 11
3.646395
 21
7.498122
 31
0.0
 11
3.644010
 21
7.498138
 31
0.0
 11
3.641669
 21
7.498746
 31
0.0
 11
3.639494
 21
7.499914
 31
0.0
 11
3.637652
 21
7.501559
 31
0.0
 11
3.636280
 21
7.503551
 31
0.0
 11
3.635449
 21
7.505786
 31
0.0
 11
3.635230
 21
7.508096
 31
0.0
 11
3.635631
 21
7.510305
 31
0.0
 11
3.636631
 21
7.512299
 31
0.0
 11
3.638162
 21
7.513921
 31
0.0
 11
3.640101
 21
7.515053
 31
0.0
 11
3.642347
 21
7.515637
 31
0.0
 11
3.644732
 21
7.515621
 31
0.0
 11
3.647073
 21
7.515013
 31
0.0
 11
3.649249
 21
7.513845
 31
0.0
 11
3.651090
 21
7.512200
 31
0.0
 11
3.652462
 21
7.510208
 31
0.0
 11
3.653293
 21
7.507973
 31
0.0
 11
3.653512
 21
7.505663
 31
0.0
 11
3.653112
 21
7.503453
 31
0.0
 11
3.652111
 21
7.501460
 31
0.0
  0
LINE
  5
13b
100
AcDbEntity
  8
text
 62
4
100
AcDbLine
 10
3.290089
 20
7.754950
 30
0.0
 11
3.290089
 21
7.754950
 31
0.0
  0
SPLINE
  5
13c
100
AcDbEntity
  8
text
 62
4
100
AcDbSpline
 70
0
 71
3
 72
31
 73
27
 74
25
 40
0.000000
 40
0.000000
 40
0.000000
 40
0.000000
 40
0.002231
 40
0.004476
 40
0.006796
 40
0.009181
 40
0.011600
 40
0.014069
 40
0.016538
 40
0.018957
 40
0.021342
 40
0.023662
 40
0.025908
 40
0.028138
 40
0.030369
 40
0.032614
 40
0.034935
 40
0.037319
 40
0.039738
 40
0.042207
 40
0.044677
 40
0.047095
 40
0.049480
 40
0.051801
 40
0.054046
 40
0.056276
 40
0.056276
 40
0.056276
 40
0.056276
 10
3.290089
 20
7.754950
 30
0.0
 10
3.289609
 20
7.754376
 30
0.0
 10
3.288645
 20
7.753223
 30
0.0
 10
3.286629
 20
7.752093
 30
0.0
 10
3.284366
 20
7.751506
 30
0.0
 10
3.281963
 20
7.751532
 30
0.0
 10
3.279596
 20
7.752152
 30
0.0
 10
3.277416
 20
7.753324
 30
0.0
 10
3.275569
 20
7.754972
 30
0.0
 10
3.274176
 20
7.756985
 30
0.0
 10
3.273332
 20
7.759232
 30
0.0
 10
3.273101
 20
7.761565
 30
0.0
 10
3.273504
 20
7.763825
 30
0.0
 10
3.274519
 20
7.765853
 30
0.0
 10
3.276078
 20
7.767500
 30
0.0
 10
3.278063
 20
7.768651
 30
0.0
 10
3.280335
 20
7.769232
 30
0.0
 10
3.282735
 20
7.769208
 30
0.0
 10
3.285103
 20
7.768588
 30
0.0
 10
3.287283
 20
7.767415
 30
0.0
 10
3.289130
 20
7.765768
 30
0.0
 10
3.290522
 20
7.763755
 30
0.0
 10
3.291368
 20
7.761507
 30
0.0
 10
3.291590
 20
7.759179
 30
0.0
 10
3.291219
 20
7.756898
 30
0.0
 10
3.290465
 20
7.755598
 30
0.0
 10
3.290089
 20
7.754950
 30
0.0
 11
3.290089
 21
7.754950
 31
0.0
 11
3.288558
 21
7.753328
 31
0.0
 11
3.286619
 21
7.752196
 31
0.0
 11
3.284373
 21
7.751612
 31
0.0
 11
3.281989
 21
7.751628
 31
0.0
 11
3.279648
 21
7.752236
 31
0.0
 11
3.277472
 21
7.753404
 31
0.0
 11
3.275630
 21
7.755049
 31
0.0
 11
3.274259
 21
7.757041
 31
0.0
 11
3.273428
 21
7.759276
 31
0.0
 11
3.273208
 21
7.761587
 31
0.0
 11
3.273609
 21
7.763796
 31
0.0
 11
3.274610
 21
7.765789
 31
0.0
 11
3.276141
 21
7.767411
 31
0.0
 11
3.278079
 21
7.768544
 31
0.0
 11
3.280325
 21
7.769127
 31
0.0
 11
3.282710
 21
7.769111
 31
0.0
 11
3.285051
 21
7.768503
 31
0.0
 11
3.287227
 21
7.767336
 31
0.0
 11
3.289068
 21
7.765690
 31
0.0
 11
3.290440
 21
7.763699
 31
0.0
 11
3.291271
 21
7.761463
 31
0.0
 11
3.291491
 21
7.759153
 31
0.0
 11
3.291090
 21
7.756944
 31
0.0
 11
3.290089
 21
7.754950
 31
0.0
  0
LINE
  5
13d
100
AcDbEntity
  8
text
 62
4
100
AcDbLine
 10
2.935254
 20
7.114519
 30
0.0
 11
2.935254
 21
7.114519
 31
0.0
  0
SPLINE
  5
13e
100
AcDbEntity
  8
text
 62
4
100
AcDbSpline
 70
0
 71
3
 72
31
 73
27
 74
25
 40
0.000000
 40
0.000000
 40
0.000000
 40
0.000000
 40
0.002231
 40
0.004476
 40
0.006796
 40
0.009181
 40
0.011600
 40
0.014069
 40
0.016538
 40
0.018957
 40
0.021342
 40
0.023662
 40
0.025908
 40
0.028138
 40
0.030369
 40
0.032614
 40
0.034935
 40
0.037319
 40
0.039738
 40
0.042207
 40
0.044677
 40
0.047095
 40
0.049480
 40
0.051801
 40
0.054046
 40
0.056276
 40
0.056276
 40
0.056276
 40
0.056276
 10
2.935254
 20
7.114519
 30
0.0
 10
2.934774
 20
7.113945
 30
0.0
 10
2.933811
 20
7.112792
 30
0.0
 10
2.931794
 20
7.111662
 30
0.0
 10
2.929531
 20
7.111075
 30
0.0
 10
2.927129
 20
7.111101
 30
0.0
 10
2.924762
 20
7.111721
 30
0.0
 10
2.922581
 20
7.112893
 30
0.0
 10
2.920734
 20
7.114541
 30
0.0
 10
2.919341
 20
7.116554
 30
0.0
 10
2.918498
 20
7.118801
 30
0.0
 10
2.918267
 20
7.121134
 30
0.0
 10
2.918670
 20
7.123394
 30
0.0
 10
2.919685
 20
7.125422
 30
0.0
 10
2.921243
 20
7.127069
 30
0.0
 10
2.923228
 20
7.128220
 30
0.0
 10
2.925500
 20
7.128801
 30
0.0
 10
2.927900
 20
7.128777
 30
0.0
 10
2.930268
 20
7.128157
 30
0.0
 10
2.932448
 20
7.126984
 30
0.0
 10
2.934295
 20
7.125337
 30
0.0
 10
2.935687
 20
7.123324
 30
0.0
 10
2.936534
 20
7.121076
 30
0.0
 10
2.936756
 20
7.118748
 30
0.0
 10
2.936384
 20
7.116467
 30
0.0
 10
2.935630
 20
7.115167
 30
0.0
 10
2.935254
 20
7.114519
 30
0.0
 11
2.935254
 21
7.114519
 31
0.0
 11
2.933723
 21
7.112897
 31
0.0
 11
2.931785
 21
7.111765
 31
0.0
 11
2.929539
 21
7.111181
 31
0.0
 11
2.927154
 21
7.111197
 31
0.0
 11
2.924813
 21
7.111805
 31
0.0
 11
2.922637
 21
7.112973
 31
0.0
 11
2.920796
 21
7.114618
 31
0.0
 11
2.919424
 21
7.116610
 31
0.0
 11
2.918593
 21
7.118845
 31
0.0
 11
2.918373
 21
7.121156
 31
0.0
 11
2.918774
 21
7.123365
 31
0.0
 11
2.919775
 21
7.125358
 31
0.0
 11
2.921306
 21
7.126980
 31
0.0
 11
2.923245
 21
7.128113
 31
0.0
 11
2.925491
 21
7.128696
 31
0.0
 11
2.927876
 21
7.128680
 31
0.0
 11
2.930216
 21
7.128072
 31
0.0
 11
2.932392
 21
7.126905
 31
0.0
 11
2.934234
 21
7.125259
 31
0.0
 11
2.935606
 21
7.123268
 31
0.0
 11
2.936436
 21
7.121032
 31
0.0
 11
2.936656
 21
7.118722
 31
0.0
 11
2.936255
 21
7.116513
 31
0.0
 11
2.935254
 21
7.114519
 31
0.0
  0
LINE
  5
13f
100
AcDbEntity
  8
text
 62
4
100
AcDbLine
 10
3.652111
 20
6.612571
 30
0.0
 11
3.652111
 21
6.612571
 31
0.0
  0
SPLINE
  5
140
100
AcDbEntity
  8
text
 62
4
100
AcDbSpline
 70
0
 71
3
 72
31
 73
27
 74
25
 40
0.000000
 40
0.000000
 40
0.000000
 40
0.000000
 40
0.002231
 40
0.004476
 40
0.006796
 40
0.009181
 40
0.011600
 40
0.014069
 40
0.016538
 40
0.018957
 40
0.021342
 40
0.023662
 40
0.025908
 40
0.028138
 40
0.030369
 40
0.032614
 40
0.034935
 40
0.037319
 40
0.039738
 40
0.042207
 40
0.044677
 40
0.047095
 40
0.049480
 40
0.051801
 40
0.054046
 40
0.056276
 40
0.056276
 40
0.056276
 40
0.056276
 10
3.652111
 20
6.612571
 30
0.0
 10
3.651631
 20
6.611997
 30
0.0
 10
3.650667
 20
6.610844
 30
0.0
 10
3.648651
 20
6.609714
 30
0.0
 10
3.646388
 20
6.609127
 30
0.0
 10
3.643985
 20
6.609153
 30
0.0
 10
3.641618
 20
6.609773
 30
0.0
 10
3.639438
 20
6.610945
 30
0.0
 10
3.637591
 20
6.612593
 30
0.0
 10
3.636198
 20
6.614605
 30
0.0
 10
3.635354
 20
6.616852
 30
0.0
 10
3.635123
 20
6.619186
 30
0.0
 10
3.635526
 20
6.621446
 30
0.0
 10
3.636541
 20
6.623473
 30
0.0
 10
3.638099
 20
6.625120
 30
0.0
 10
3.640085
 20
6.626272
 30
0.0
 10
3.642357
 20
6.626853
 30
0.0
 10
3.644757
 20
6.626829
 30
0.0
 10
3.647124
 20
6.626208
 30
0.0
 10
3.649304
 20
6.625036
 30
0.0
 10
3.651152
 20
6.623388
 30
0.0
 10
3.652544
 20
6.621376
 30
0.0
 10
3.653390
 20
6.619127
 30
0.0
 10
3.653612
 20
6.616800
 30
0.0
 10
3.653240
 20
6.614518
 30
0.0
 10
3.652487
 20
6.613219
 30
0.0
 10
3.652111
 20
6.612571
 30
0.0
 11
3.652111
 21
6.612571
 31
0.0
 11
3.650580
 21
6.610949
 31
0.0
 11
3.648641
 21
6.609817
 31
0.0
 11
3.646395
 21
6.609233
 31
0.0
 11
3.644010
 21
6.609249
 31
0.0
 11
3.641669
 21
6.609857
 31
0.0
 11
3.639494
 21
6.611025
 31
0.0
 11
3.637652
 21
6.612670
 31
0.0
 11
3.636280
 21
6.614662
 31
0.0
 11
3.635449
 21
6.616897
 31
0.0
 11
3.635230
 21
6.619207
 31
0.0
 11
3.635631
 21
6.621417
 31
0.0
 11
3.636631
 21
6.623410
 31
0.0
 11
3.638162
 21
6.625032
 31
0.0
 11
3.640101
 21
6.626164
 31
0.0
 11
3.642347
 21
6.626748
 31
0.0
 11
3.644732
 21
6.626732
 31
0.0
 11
3.647073
 21
6.626124
 31
0.0
 11
3.649249
 21
6.624956
 31
0.0
 11
3.651090
 21
6.623311
 31
0.0
 11
3.652462
 21
6.621319
 31
0.0
 11
3.653293
 21
6.619084
 31
0.0
 11
3.653512
 21
6.616774
 31
0.0
 11
3.653112
 21
6.614565
 31
0.0
 11
3.652111
 21
6.612571
 31
0.0
  0
LINE
  5
141
100
AcDbEntity
  8
text
 62
4
100
AcDbLine
 10
3.290089
 20
6.866061
 30
0.0
 11
3.290089
 21
6.866061
 31
0.0
  0
LINE
  5
142
100
AcDbEntity
  8
text
 62
1
100
AcDbLine
 10
3.190000
 20
8.653333
 30
0.0
 11
2.640000
 21
8.653333
 31
0.0
  0
LINE
  5
143
100
AcDbEntity
  8
text
 62
1
100
AcDbLine
 10
2.640000
 20
8.653333
 30
0.0
 11
2.640000
 21
6.446000
 31
0.0
  0
LINE
  5
144
100
AcDbEntity
  8
text
 62
1
100
AcDbLine
 10
2.640000
 20
6.446000
 30
0.0
 11
2.229333
 21
6.446000
 31
0.0
  0
LINE
  5
145
100
AcDbEntity
  8
text
 62
1
100
AcDbLine
 10
3.234000
 20
7.758666
 30
0.0
 11
2.647333
 21
7.758666
 31
0.0
  0
LINE
  5
146
100
AcDbEntity
  8
text
 62
1
100
AcDbLine
 10
3.234000
 20
6.871333
 30
0.0
 11
2.647333
 21
6.871333
 31
0.0
  0
SPLINE
  5
147
100
AcDbEntity
  8
text
 62
4
100
AcDbSpline
 70
0
 71
3
 72
31
 73
27
 74
25
 40
0.000000
 40
0.000000
 40
0.000000
 40
0.000000
 40
0.002231
 40
0.004476
 40
0.006796
 40
0.009181
 40
0.011600
 40
0.014069
 40
0.016538
 40
0.018957
 40
0.021342
 40
0.023662
 40
0.025908
 40
0.028138
 40
0.030369
 40
0.032614
 40
0.034935
 40
0.037319
 40
0.039738
 40
0.042207
 40
0.044677
 40
0.047095
 40
0.049480
 40
0.051801
 40
0.054046
 40
0.056276
 40
0.056276
 40
0.056276
 40
0.056276
 10
3.290089
 20
6.866061
 30
0.0
 10
3.289609
 20
6.865487
 30
0.0
 10
3.288645
 20
6.864334
 30
0.0
 10
3.286629
 20
6.863204
 30
0.0
 10
3.284366
 20
6.862617
 30
0.0
 10
3.281963
 20
6.862643
 30
0.0
 10
3.279596
 20
6.863263
 30
0.0
 10
3.277416
 20
6.864435
 30
0.0
 10
3.275569
 20
6.866083
 30
0.0
 10
3.274176
 20
6.868096
 30
0.0
 10
3.273332
 20
6.870343
 30
0.0
 10
3.273101
 20
6.872676
 30
0.0
 10
3.273504
 20
6.874936
 30
0.0
 10
3.274519
 20
6.876964
 30
0.0
 10
3.276078
 20
6.878611
 30
0.0
 10
3.278063
 20
6.879762
 30
0.0
 10
3.280335
 20
6.880344
 30
0.0
 10
3.282735
 20
6.880319
 30
0.0
 10
3.285103
 20
6.879699
 30
0.0
 10
3.287283
 20
6.878526
 30
0.0
 10
3.289130
 20
6.876879
 30
0.0
 10
3.290522
 20
6.874866
 30
0.0
 10
3.291368
 20
6.872618
 30
0.0
 10
3.291590
 20
6.870290
 30
0.0
 10
3.291219
 20
6.868009
 30
0.0
 10
3.290465
 20
6.866709
 30
0.0
 10
3.290089
 20
6.866061
 30
0.0
 11
3.290089
 21
6.866061
 31
0.0
 11
3.288558
 21
6.864439
 31
0.0
 11
3.286619
 21
6.863307
 31
0.0
 11
3.284373
 21
6.862723
 31
0.0
 11
3.281989
 21
6.862740
 31
0.0
 11
3.279648
 21
6.863347
 31
0.0
 11
3.277472
 21
6.864515
 31
0.0
 11
3.275630
 21
6.866160
 31
0.0
 11
3.274259
 21
6.868152
 31
0.0
 11
3.273428
 21
6.870387
 31
0.0
 11
3.273208
 21
6.872698
 31
0.0
 11
3.273609
 21
6.874907
 31
0.0
 11
3.274610
 21
6.876900
 31
0.0
 11
3.276141
 21
6.878522
 31
0.0
 11
3.278079
 21
6.879655
 31
0.0
 11
3.280325
 21
6.880239
 31
0.0
 11
3.282710
 21
6.880222
 31
0.0
 11
3.285051
 21
6.879614
 31
0.0
 11
3.287227
 21
6.878447
 31
0.0
 11
3.289068
 21
6.876802
 31
0.0
 11
3.290440
 21
6.874810
 31
0.0
 11
3.291271
 21
6.872574
 31
0.0
 11
3.291491
 21
6.870264
 31
0.0
 11
3.291090
 21
6.868055
 31
0.0
 11
3.290089
 21
6.866061
 31
0.0
  0
ENDSEC
  0
SECTION
  2
OBJECTS
  0
DICTIONARY
  5
C
330
0
100
AcDbDictionary
  3
ACAD_GROUP
350
D
  3
ACAD_MLINESTYLE
350
17
  0
DICTIONARY
  5
D
330
C
100
AcDbDictionary
  0
DICTIONARY
  5
1A
330
C
100
AcDbDictionary
  0
DICTIONARY
  5
17
330
C
100
AcDbDictionary
  3
STANDARD
350
18
  0
DICTIONARY
  5
19
330
C
100
AcDbDictionary
  0
ENDSEC
  0
EOF
